<svg width="58" height="36" viewBox="0 0 58 36" fill="none" xmlns="http://www.w3.org/2000/svg">
<path d="M49.3763 20.6515C49.2893 20.6528 49.15 20.6921 48.9801 20.7682C49.0773 20.7871 49.1593 20.8169 49.2167 20.8541C49.2741 20.8913 49.3046 20.9343 49.3047 20.9783C49.3048 21.0089 49.29 21.0392 49.2613 21.0675C49.2326 21.0958 49.1905 21.1215 49.1374 21.1432C49.0844 21.1648 49.0214 21.182 48.9521 21.1937C48.8828 21.2054 48.8085 21.2115 48.7334 21.2115C48.5883 21.2114 48.4486 21.1888 48.3428 21.1482C47.9543 21.431 47.526 21.8166 47.1156 22.2558C47.0196 22.3587 46.9256 22.4635 46.8338 22.5701C46.8576 22.5688 46.8816 22.5681 46.9056 22.5681C47.0587 22.5681 47.2055 22.5926 47.3137 22.6364C47.4219 22.6801 47.4828 22.7394 47.4828 22.8012C47.4828 22.8319 47.4678 22.8622 47.4388 22.8905C47.4098 22.9188 47.3673 22.9445 47.3137 22.9662C47.2601 22.9878 47.1965 23.005 47.1265 23.0167C47.0564 23.0284 46.9814 23.0345 46.9056 23.0345C46.7565 23.0344 46.6132 23.0111 46.5057 22.9694C46.0426 23.5605 45.6476 24.1902 45.4117 24.7513C47.9627 25.2364 50.8886 25.2013 53.5746 24.6518C53.5431 24.5707 53.5094 24.4906 53.4733 24.4115C53.3944 24.426 53.3075 24.4335 53.2194 24.4336C53.0678 24.4336 52.9225 24.4115 52.8154 24.3722C52.7083 24.3328 52.6481 24.2794 52.648 24.2238C52.648 24.1681 52.7082 24.1147 52.8154 24.0754C52.9225 24.036 53.0678 24.0139 53.2194 24.0139C53.2379 24.0139 53.2564 24.0143 53.2748 24.0151C52.9479 23.4177 52.4788 22.7771 51.951 22.2242C51.069 21.3 50.0115 20.6415 49.3763 20.6515H49.3763ZM50.1362 21.3104C50.2089 21.3104 50.281 21.3157 50.3482 21.326C50.4154 21.3362 50.4764 21.3513 50.5279 21.3702C50.5793 21.3892 50.6201 21.4117 50.6479 21.4364C50.6757 21.4612 50.69 21.4877 50.69 21.5145C50.69 21.5686 50.6316 21.6205 50.5278 21.6588C50.4239 21.697 50.2831 21.7185 50.1362 21.7185C49.9893 21.7185 49.8484 21.697 49.7446 21.6588C49.6407 21.6205 49.5823 21.5686 49.5823 21.5145C49.5823 21.4877 49.5966 21.4612 49.6244 21.4364C49.6522 21.4117 49.693 21.3892 49.7445 21.3702C49.7959 21.3512 49.857 21.3362 49.9242 21.326C49.9914 21.3157 50.0634 21.3104 50.1362 21.3104ZM51.1402 22.3249C51.2902 22.3249 51.434 22.3488 51.5401 22.3915C51.6461 22.4341 51.7057 22.4919 51.7058 22.5522C51.7058 22.6125 51.6462 22.6704 51.5401 22.713C51.4341 22.7556 51.2902 22.7796 51.1402 22.7796C51.066 22.7796 50.9924 22.7737 50.9238 22.7623C50.8552 22.7509 50.7929 22.7341 50.7403 22.713C50.6878 22.6919 50.6462 22.6668 50.6177 22.6392C50.5893 22.6117 50.5747 22.5821 50.5747 22.5522C50.5747 22.4919 50.6343 22.4341 50.7404 22.3915C50.8464 22.3488 50.9903 22.3249 51.1402 22.3249ZM48.9485 23.0465C49.0235 23.0465 49.0978 23.0525 49.1672 23.0642C49.2365 23.0759 49.2995 23.0931 49.3525 23.1148C49.4056 23.1364 49.4477 23.1621 49.4764 23.1904C49.5051 23.2187 49.5199 23.249 49.5199 23.2797C49.5199 23.3415 49.4597 23.4008 49.3525 23.4446C49.2454 23.4883 49.1001 23.5129 48.9485 23.5129C48.8735 23.5129 48.7992 23.5068 48.7299 23.4951C48.6606 23.4834 48.5976 23.4662 48.5445 23.4446C48.4915 23.4229 48.4494 23.3972 48.4207 23.3689C48.392 23.3406 48.3772 23.3103 48.3772 23.2797C48.3772 23.249 48.3919 23.2187 48.4207 23.1904C48.4494 23.1621 48.4914 23.1364 48.5445 23.1148C48.5976 23.0931 48.6605 23.0759 48.7299 23.0642C48.7992 23.0525 48.8735 23.0465 48.9485 23.0465H48.9485ZM47.6576 24.2704C47.7342 24.2704 47.81 24.2757 47.8808 24.2859C47.9515 24.2962 48.0158 24.3112 48.0699 24.3302C48.124 24.3491 48.167 24.3716 48.1963 24.3964C48.2256 24.4211 48.2406 24.4477 48.2406 24.4745C48.2406 24.5286 48.1792 24.5805 48.0699 24.6187C47.9605 24.657 47.8123 24.6785 47.6576 24.6785C47.5811 24.6785 47.5053 24.6732 47.4345 24.663C47.3638 24.6527 47.2995 24.6377 47.2454 24.6187C47.1912 24.5998 47.1483 24.5773 47.119 24.5525C47.0897 24.5278 47.0746 24.5012 47.0746 24.4745C47.0746 24.4477 47.0897 24.4211 47.119 24.3964C47.1483 24.3716 47.1912 24.3491 47.2454 24.3302C47.2995 24.3112 47.3638 24.2962 47.4345 24.2859C47.5052 24.2757 47.5811 24.2704 47.6576 24.2704ZM54.8024 24.9764C51.4346 25.8657 47.5886 25.9278 44.3991 25.1405C44.1878 25.389 44.0034 25.6146 43.8965 25.8361C43.79 26.0566 43.7434 26.2831 43.7822 26.5873C47.5767 27.4492 51.7031 27.2397 55.5439 26.5493C55.5884 26.3207 55.5547 26.0998 55.4422 25.851C55.3194 25.5793 55.0952 25.2836 54.8024 24.9764ZM55.2166 27.2157C54.4805 27.3404 53.7344 27.4473 52.9821 27.5323C53.3137 28.9127 53.7075 30.4858 53.5633 31.9257L53.5425 32.1339L53.3397 32.1855C51.0404 32.7711 48.566 33.2292 46.2393 32.1678L46.0916 32.1004L46.0678 31.9398C45.8461 30.4461 46.3047 29.0094 46.5422 27.6324C45.7262 27.554 44.9164 27.4361 44.1179 27.2734C43.3376 29.1953 42.9103 31.5531 43.1019 33.6881C42.7739 34.0289 42.4562 34.4667 42.6276 34.7618C42.9294 35.2811 44.0503 35.0105 44.7249 34.7892C47.8085 35.5075 51.3837 35.4322 54.3421 34.8366C54.955 35.0572 56.3235 35.4691 56.6623 34.886C56.8256 34.605 56.5449 34.1943 56.2344 33.8613C56.5736 31.5499 55.9045 29.2377 55.2166 27.2157ZM52.3824 27.5957C50.6453 27.7637 48.8816 27.809 47.1401 27.6823C46.9089 29.0736 46.5031 30.408 46.6444 31.6891C48.656 32.5397 50.8323 32.1929 52.9791 31.6578C53.0543 30.3934 52.6998 28.9268 52.3824 27.5957H52.3824Z" fill="white"/>
<path d="M44.0698 27.2637L49.7365 27.7359L55.167 27.2637L53.2782 32.6942L49.7365 33.1665L46.1948 32.6942L44.0698 27.2637Z" fill="white"/>
<path d="M45.39 30.5625V29.1625H45.716L46.488 30.0945H46.334V29.1625H46.722V30.5625H46.396L45.624 29.6305H45.778V30.5625H45.39Z" fill="#1EA81E"/>
<path d="M48.9315 33.44L48.9095 32.996L49.5115 32.35H49.9475L49.3475 33L49.1275 33.23L48.9315 33.44ZM48.5775 33.75V32.35H48.9695V33.75H48.5775ZM49.5175 33.75L49.0615 33.172L49.3195 32.896L49.9775 33.75H49.5175Z" fill="#1EA81E"/>
<path d="M52.8275 30.5625V29.1625H53.4675C53.5955 29.1625 53.7055 29.1832 53.7975 29.2245C53.8908 29.2658 53.9628 29.3258 54.0135 29.4045C54.0642 29.4818 54.0895 29.5738 54.0895 29.6805C54.0895 29.7858 54.0642 29.8772 54.0135 29.9545C53.9628 30.0318 53.8908 30.0918 53.7975 30.1345C53.7055 30.1758 53.5955 30.1965 53.4675 30.1965H53.0475L53.2235 30.0245V30.5625H52.8275ZM53.2235 30.0665L53.0475 29.8845H53.4435C53.5262 29.8845 53.5875 29.8665 53.6275 29.8305C53.6688 29.7945 53.6895 29.7445 53.6895 29.6805C53.6895 29.6152 53.6688 29.5645 53.6275 29.5285C53.5875 29.4925 53.5262 29.4745 53.4435 29.4745H53.0475L53.2235 29.2925V30.0665Z" fill="#1EA81E"/>
<path d="M44.632 12V4.452L45.652 5.436H43.072V3.6H47.008V12H44.632ZM50.5993 10.656V4.944H52.4473V10.656H50.5993ZM48.5593 8.676V6.924H54.4753V8.676H48.5593Z" fill="white"/>
<g clipPath="url(#clip0_1387_1642)">
<path fillRule="evenodd" clipRule="evenodd" d="M17.4572 22.057C17.3447 22.2178 17.3006 22.4166 17.3347 22.6099C17.3687 22.8031 17.4782 22.9749 17.6389 23.0875C17.7997 23.2001 17.9986 23.2441 18.1918 23.2101L18.901 23.085L19.7279 27.7747L17.1012 32.6826C16.3235 34.135 17.5614 35.8431 19.1829 35.5572L27.7597 34.0449C29.3812 33.759 29.9592 31.7307 28.7326 30.6317L24.5857 26.9181L23.7588 22.2285L24.468 22.1034C24.6612 22.0693 24.833 21.9599 24.9456 21.7991C25.0582 21.6384 25.1022 21.4395 25.0682 21.2463C25.0341 21.053 24.9246 20.8812 24.7639 20.7687C24.6032 20.6561 24.4043 20.612 24.211 20.6461L17.9348 21.7528C17.7416 21.7868 17.5698 21.8963 17.4572 22.057ZM21.2421 31.2614L21.4852 32.6401L21.8456 32.5766L21.7202 31.8655L22.1742 32.3785L22.3475 32.3479L22.5975 31.6897L22.73 32.4206L23.0884 32.3574L22.8414 30.9794L22.5203 31.036L22.1889 31.9158L21.5631 31.2048L21.2421 31.2614ZM23.6394 32.636C23.7368 32.6432 23.8367 32.6378 23.9391 32.6197C24.1387 32.5845 24.2844 32.5087 24.3763 32.3923C24.4681 32.2759 24.4962 32.1166 24.4606 31.9144L24.3067 31.0419L23.9502 31.1048L23.9728 31.2328C23.9381 31.1995 23.8986 31.1753 23.8544 31.1602C23.7836 31.1348 23.7028 31.1301 23.6122 31.1461C23.5177 31.1627 23.4341 31.1991 23.3614 31.2553C23.29 31.3112 23.2369 31.3822 23.202 31.4682C23.1681 31.5527 23.1605 31.6475 23.179 31.7525C23.1975 31.8576 23.2372 31.9447 23.2982 32.0138C23.3602 32.0814 23.4344 32.1299 23.5208 32.1593C23.6083 32.1872 23.6993 32.1928 23.7939 32.1762C23.8845 32.1602 23.9587 32.1282 24.0166 32.08C24.0455 32.056 24.0696 32.0277 24.0889 31.9952L24.095 32.0297C24.1098 32.1137 24.0987 32.1813 24.0617 32.2325C24.025 32.285 23.956 32.3202 23.8549 32.338C23.7919 32.3492 23.725 32.3501 23.6544 32.3409C23.5852 32.3328 23.5252 32.3149 23.4743 32.2874L23.3846 32.5733C23.4584 32.6077 23.5433 32.6286 23.6394 32.636ZM23.9434 31.8147C23.9125 31.8391 23.8747 31.8553 23.8301 31.8631C23.7854 31.871 23.7438 31.8689 23.7051 31.8567C23.6664 31.8446 23.6336 31.824 23.6068 31.7949C23.5813 31.7655 23.5648 31.7292 23.5571 31.6858C23.5495 31.6425 23.5526 31.6027 23.5665 31.5664C23.5818 31.5299 23.6056 31.4999 23.638 31.4766C23.6702 31.452 23.7087 31.4357 23.7533 31.4279C23.798 31.42 23.839 31.4222 23.8764 31.4346C23.9148 31.4454 23.9468 31.4655 23.9723 31.4948C23.9991 31.524 24.0163 31.5602 24.0239 31.6035C24.0316 31.6469 24.0278 31.6868 24.0126 31.7233C23.9987 31.7596 23.9756 31.7901 23.9434 31.8147Z" fill="white"/>
</g>
<g clipPath="url(#clip1_1387_1642)">
<path fillRule="evenodd" clipRule="evenodd" d="M5.50843 20.7683C5.34769 20.8808 5.23824 21.0526 5.20416 21.2459C5.17009 21.4391 5.21418 21.638 5.32673 21.7987C5.43929 21.9595 5.61109 22.0689 5.80434 22.103L6.51357 22.2281L5.68666 26.9177L1.53974 30.6313C0.312178 31.7301 0.891145 33.7586 2.51266 34.0445L11.0895 35.5568C12.711 35.8427 13.9478 34.1345 13.1711 32.6822L10.5444 27.7743L11.3713 23.0846L12.0805 23.2097C12.2738 23.2437 12.4727 23.1997 12.6334 23.0871C12.7941 22.9745 12.9036 22.8027 12.9377 22.6095C12.9717 22.4162 12.9277 22.2174 12.8151 22.0566C12.7025 21.8959 12.5307 21.7864 12.3375 21.7523L6.06131 20.6457C5.86805 20.6116 5.66918 20.6557 5.50843 20.7683ZM6.17247 32.2319C6.25968 32.2824 6.35778 32.3173 6.46676 32.3366C6.59413 32.359 6.71165 32.3567 6.81931 32.3297C6.92852 32.3015 7.02391 32.252 7.10546 32.1811L6.89688 31.9128C6.84297 31.9575 6.78667 31.9888 6.72797 32.0069C6.67059 32.0252 6.60907 32.0286 6.54342 32.017C6.48695 32.0071 6.43671 31.9887 6.39268 31.962C6.34865 31.9353 6.31257 31.9018 6.28445 31.8617C6.25788 31.8204 6.23903 31.7738 6.2279 31.7217C6.21808 31.6699 6.21838 31.6145 6.2288 31.5554C6.23922 31.4963 6.2579 31.4441 6.28485 31.3987C6.31312 31.3536 6.34667 31.3169 6.38552 31.2885C6.42591 31.2591 6.47136 31.2394 6.52187 31.2293C6.57238 31.2193 6.62587 31.2192 6.68233 31.2292C6.74799 31.2407 6.80465 31.2649 6.85231 31.3018C6.90128 31.3389 6.94346 31.3876 6.97884 31.448L7.26661 31.2672C7.21446 31.1714 7.14176 31.0922 7.04853 31.0297C6.95661 30.9675 6.84696 30.9251 6.71959 30.9027C6.61061 30.8835 6.50638 30.8834 6.4069 30.9024C6.30896 30.9203 6.22018 30.9554 6.14056 31.0077C6.06224 31.0603 5.99629 31.1272 5.9427 31.2084C5.88934 31.2884 5.8534 31.3809 5.83488 31.4859C5.81635 31.591 5.81838 31.6908 5.84094 31.7855C5.86374 31.8789 5.90295 31.9637 5.95857 32.0398C6.01551 32.1162 6.08681 32.1802 6.17247 32.2319ZM7.89307 32.4173L7.86873 32.5553L8.21735 32.6168L8.32189 32.0239C8.35175 31.8546 8.32571 31.722 8.24374 31.6263C8.16333 31.5296 8.03645 31.4659 7.86313 31.4353C7.77909 31.4205 7.69243 31.4167 7.60314 31.424C7.5154 31.4302 7.43786 31.4477 7.37051 31.4764L7.45176 31.7527C7.49362 31.7303 7.5422 31.7159 7.59751 31.7094C7.65304 31.7016 7.70641 31.7022 7.75762 31.7112C7.8364 31.7251 7.89063 31.7516 7.92029 31.7907C7.94867 31.8252 7.95984 31.8685 7.9538 31.9205L7.74154 31.883C7.63124 31.8636 7.53898 31.8608 7.46476 31.8748C7.39076 31.8875 7.33242 31.9151 7.28971 31.9577C7.24855 31.9992 7.22218 32.0528 7.2106 32.1184C7.19972 32.1801 7.20498 32.2386 7.22638 32.2938C7.2491 32.3493 7.28745 32.3966 7.34145 32.436C7.39544 32.4753 7.46511 32.5024 7.55046 32.5175C7.64369 32.5339 7.72178 32.5287 7.78472 32.5019C7.82801 32.4832 7.86412 32.455 7.89307 32.4173ZM7.90355 32.2081L7.91988 32.1155L7.75837 32.087C7.69797 32.0764 7.65355 32.0787 7.62513 32.094C7.59802 32.1095 7.58158 32.1337 7.57579 32.1666C7.57 32.1994 7.57784 32.2278 7.59932 32.2519C7.62079 32.276 7.6532 32.2919 7.69653 32.2995C7.73723 32.3067 7.77574 32.3034 7.81204 32.2894C7.84988 32.2745 7.88039 32.2473 7.90355 32.2081Z" fill="white"/>
</g>
<path d="M10.632 12V4.452L11.652 5.436H9.072V3.6H13.008V12H10.632ZM16.5993 10.656V4.944H18.4473V10.656H16.5993ZM14.5593 8.676V6.924H20.4753V8.676H14.5593Z" fill="white"/>
<defs>
<clipPath id="clip0_1387_1642">
<rect width="13.8115" height="13.8115" fill="white" transform="translate(14.272 22.3984) rotate(-10)"/>
</clipPath>
<clipPath id="clip1_1387_1642">
<rect width="13.8115" height="13.8115" fill="white" transform="translate(2.39844 20) rotate(10)"/>
</clipPath>
</defs>
</svg>
